<?xml version="1.0" encoding="iso-8859-1"?>
<!-- Uploaded to: SVG Repo, www.svgrepo.com, Generator: SVG Repo Mixer Tools -->
<svg height="800px" width="800px" version="1.1" id="Layer_1" xmlns="http://www.w3.org/2000/svg" xmlns:xlink="http://www.w3.org/1999/xlink" 
	 viewBox="0 0 512 512" xml:space="preserve">
<path style="fill:#E4EBF0;" d="M435.134,134.35c0.444-24.063-14.037-49.685-37.209-57.149
	c-5.793-26.402-28.743-43.112-50.019-43.446c-13.256-21.278-38.768-29.967-60.378-22.169C278.503,4.01,267.363,0,256,0
	c-11.029,0-22.169,3.788-31.528,11.586c-21.165-7.575-46.899,0.557-60.378,22.169c-21.499,0.334-44.338,17.267-50.019,43.446
	c-23.06,7.464-37.654,32.975-37.209,57.149c-35.648,29.41-23.393,95.582,19.384,98.701c0.446,0,0.781,0.111,1.227,0.111h317.048
	c0.446,0,0.781-0.111,1.227-0.111C458.862,229.932,470.559,163.537,435.134,134.35z"/>
<path style="fill:#CDD9E4;" d="M415.75,233.051c-0.446,0-0.781,0.111-1.227,0.111H256V0c11.363,0,22.503,4.01,31.528,11.586
	c21.611-7.798,47.123,0.891,60.378,22.17c21.276,0.334,44.226,17.044,50.019,43.446c23.173,7.463,37.654,33.085,37.209,57.148
	C470.559,163.537,458.862,229.932,415.75,233.051z"/>
<path style="fill:#FF9F19;" d="M356.261,407.529H155.739c-9.225,0-16.71,7.479-16.71,16.71v37.63
	c0,27.643,22.487,50.131,50.131,50.131h133.681c27.643,0,50.131-22.487,50.131-50.131v-37.63
	C372.971,415.009,365.486,407.529,356.261,407.529z"/>
<path style="fill:#F28618;" d="M356.261,407.529H256V512h66.841c27.643,0,50.131-22.487,50.131-50.131v-37.63
	C372.971,415.009,365.486,407.529,356.261,407.529z"/>
<path style="fill:#736056;" d="M322.841,445.159H189.159c-82.93,0-150.392-67.467-150.392-150.392v-77.981
	c0-9.231,7.485-16.71,16.71-16.71h401.044c9.225,0,16.71,7.479,16.71,16.71v77.981C473.232,377.694,405.771,445.159,322.841,445.159
	z"/>
<path style="fill:#665247;" d="M456.522,200.077H256v245.083h66.841c82.93,0,150.392-67.467,150.392-150.392v-77.981
	C473.232,207.556,465.747,200.077,456.522,200.077z"/>
<path style="fill:#997F72;" d="M189.159,378.319c-46.072,0-83.551-37.479-83.551-83.551c0-9.231,7.485-16.71,16.71-16.71
	s16.71,7.479,16.71,16.71c0,27.643,22.487,50.131,50.131,50.131c9.225,0,16.71,7.479,16.71,16.71S198.384,378.319,189.159,378.319z"
	/>
<circle style="fill:#C9D2D9;" cx="256" cy="149.946" r="16.71"/>
<circle style="fill:#B7C4CC;" cx="322.841" cy="116.526" r="16.71"/>
<circle style="fill:#C9D2D9;" cx="189.159" cy="116.526" r="16.71"/>
<path style="fill:#B7C4CC;" d="M272.71,149.946c0-9.228-7.482-16.71-16.71-16.71v33.42
	C265.228,166.656,272.71,159.176,272.71,149.946z"/>
</svg>