<svg width="800" height="770" viewBox="0 0 800 770" fill="none" xmlns="http://www.w3.org/2000/svg">
<path fill-rule="evenodd" clip-rule="evenodd" d="M143.391 279.344C112.831 329.456 120.607 416.928 134.991 469.2L96.3832 479.728C78.7832 415.696 72.1592 319.136 109.183 258.48L143.391 279.344ZM676.511 310.208C670.975 256.272 646.495 171.936 599.871 136.304L624.191 104.464C680.687 147.568 709.503 239.968 716.303 306.032L676.511 310.208ZM437.759 279.776C483.407 329.408 482.687 368.192 464.911 430.672C453.199 471.936 441.311 513.84 463.583 565.936C495.951 641.6 576.655 674.304 651.375 642.32C736.575 605.856 780.367 503.12 794.415 416.656C811.775 309.888 788.607 182.368 725.471 93.2965C563.583 -135.104 278.431 106.288 437.759 279.776ZM278.767 769.632C359.999 772.352 423.375 712.624 426.111 630.384C427.999 573.744 401.727 539.008 375.855 504.784C336.655 453.008 321.935 417.12 346.495 354.304C432.111 134.88 78.8472 13.2485 10.7352 284.784C-15.8248 390.688 8.7992 517.92 63.6632 611.136C108.095 686.656 186.143 766.528 278.767 769.632Z" fill="#B39279"/>
</svg>
